<?xml version="1.0" ?>
<svg xmlns="http://www.w3.org/2000/svg" xmlns:ev="http://www.w3.org/2001/xml-events" xmlns:xlink="http://www.w3.org/1999/xlink" baseProfile="full" height="35cm" version="1.1" width="35cm">
	<defs/>
	<rect class="BoxGlyph" height="300" transform="translate(100, 100)" width="300" x="0" y="0"/>
	<rect class="BoxGlyph" height="300" transform="translate(100, 400)" width="300" x="0" y="0"/>
	<rect class="BoxGlyph" height="300" transform="translate(100, 700)" width="300" x="0" y="0"/>
	<rect class="BoxGlyph" height="300" transform="translate(400, 100)" width="300" x="0" y="0"/>
	<rect class="BoxGlyph" height="300" transform="translate(400, 400)" width="300" x="0" y="0"/>
	<rect class="BoxGlyph" height="300" transform="translate(400, 700)" width="300" x="0" y="0"/>
	<rect class="BoxGlyph" height="300" transform="translate(700, 100)" width="300" x="0" y="0"/>
	<rect class="BoxGlyph" height="300" transform="translate(700, 400)" width="300" x="0" y="0"/>
	<rect class="BoxGlyph" height="300" transform="translate(700, 700)" width="300" x="0" y="0"/>
	<rect class="CellGlyph" height="100" transform="translate(100, 100)" width="100" x="0" y="0"/>
	<rect class="CellGlyph" height="100" transform="translate(200, 100)" width="100" x="0" y="0"/>
	<rect class="CellGlyph" height="100" transform="translate(300, 100)" width="100" x="0" y="0"/>
	<rect class="CellGlyph" height="100" transform="translate(400, 100)" width="100" x="0" y="0"/>
	<rect class="CellGlyph" height="100" transform="translate(500, 100)" width="100" x="0" y="0"/>
	<rect class="CellGlyph" height="100" transform="translate(600, 100)" width="100" x="0" y="0"/>
	<rect class="CellGlyph" height="100" transform="translate(700, 100)" width="100" x="0" y="0"/>
	<rect class="CellGlyph" height="100" transform="translate(800, 100)" width="100" x="0" y="0"/>
	<rect class="CellGlyph" height="100" transform="translate(900, 100)" width="100" x="0" y="0"/>
	<rect class="CellGlyph" height="100" transform="translate(100, 200)" width="100" x="0" y="0"/>
	<rect class="CellGlyph" height="100" transform="translate(200, 200)" width="100" x="0" y="0"/>
	<rect class="CellGlyph" height="100" transform="translate(300, 200)" width="100" x="0" y="0"/>
	<rect class="CellGlyph" height="100" transform="translate(400, 200)" width="100" x="0" y="0"/>
	<rect class="CellGlyph" height="100" transform="translate(500, 200)" width="100" x="0" y="0"/>
	<rect class="CellGlyph" height="100" transform="translate(600, 200)" width="100" x="0" y="0"/>
	<rect class="CellGlyph" height="100" transform="translate(700, 200)" width="100" x="0" y="0"/>
	<rect class="CellGlyph" height="100" transform="translate(800, 200)" width="100" x="0" y="0"/>
	<rect class="CellGlyph" height="100" transform="translate(900, 200)" width="100" x="0" y="0"/>
	<rect class="CellGlyph" height="100" transform="translate(100, 300)" width="100" x="0" y="0"/>
	<rect class="CellGlyph" height="100" transform="translate(200, 300)" width="100" x="0" y="0"/>
	<rect class="CellGlyph" height="100" transform="translate(300, 300)" width="100" x="0" y="0"/>
	<rect class="CellGlyph" height="100" transform="translate(400, 300)" width="100" x="0" y="0"/>
	<rect class="CellGlyph" height="100" transform="translate(500, 300)" width="100" x="0" y="0"/>
	<rect class="CellGlyph" height="100" transform="translate(600, 300)" width="100" x="0" y="0"/>
	<rect class="CellGlyph" height="100" transform="translate(700, 300)" width="100" x="0" y="0"/>
	<rect class="CellGlyph" height="100" transform="translate(800, 300)" width="100" x="0" y="0"/>
	<rect class="CellGlyph" height="100" transform="translate(900, 300)" width="100" x="0" y="0"/>
	<rect class="CellGlyph" height="100" transform="translate(100, 400)" width="100" x="0" y="0"/>
	<rect class="CellGlyph" height="100" transform="translate(200, 400)" width="100" x="0" y="0"/>
	<rect class="CellGlyph" height="100" transform="translate(300, 400)" width="100" x="0" y="0"/>
	<rect class="CellGlyph" height="100" transform="translate(400, 400)" width="100" x="0" y="0"/>
	<rect class="CellGlyph" height="100" transform="translate(500, 400)" width="100" x="0" y="0"/>
	<rect class="CellGlyph" height="100" transform="translate(600, 400)" width="100" x="0" y="0"/>
	<rect class="CellGlyph" height="100" transform="translate(700, 400)" width="100" x="0" y="0"/>
	<rect class="CellGlyph" height="100" transform="translate(800, 400)" width="100" x="0" y="0"/>
	<rect class="CellGlyph" height="100" transform="translate(900, 400)" width="100" x="0" y="0"/>
	<rect class="CellGlyph" height="100" transform="translate(100, 500)" width="100" x="0" y="0"/>
	<rect class="CellGlyph" height="100" transform="translate(200, 500)" width="100" x="0" y="0"/>
	<rect class="CellGlyph" height="100" transform="translate(300, 500)" width="100" x="0" y="0"/>
	<rect class="CellGlyph" height="100" transform="translate(400, 500)" width="100" x="0" y="0"/>
	<rect class="CellGlyph" height="100" transform="translate(500, 500)" width="100" x="0" y="0"/>
	<rect class="CellGlyph" height="100" transform="translate(600, 500)" width="100" x="0" y="0"/>
	<rect class="CellGlyph" height="100" transform="translate(700, 500)" width="100" x="0" y="0"/>
	<rect class="CellGlyph" height="100" transform="translate(800, 500)" width="100" x="0" y="0"/>
	<rect class="CellGlyph" height="100" transform="translate(900, 500)" width="100" x="0" y="0"/>
	<rect class="CellGlyph" height="100" transform="translate(100, 600)" width="100" x="0" y="0"/>
	<rect class="CellGlyph" height="100" transform="translate(200, 600)" width="100" x="0" y="0"/>
	<rect class="CellGlyph" height="100" transform="translate(300, 600)" width="100" x="0" y="0"/>
	<rect class="CellGlyph" height="100" transform="translate(400, 600)" width="100" x="0" y="0"/>
	<rect class="CellGlyph" height="100" transform="translate(500, 600)" width="100" x="0" y="0"/>
	<rect class="CellGlyph" height="100" transform="translate(600, 600)" width="100" x="0" y="0"/>
	<rect class="CellGlyph" height="100" transform="translate(700, 600)" width="100" x="0" y="0"/>
	<rect class="CellGlyph" height="100" transform="translate(800, 600)" width="100" x="0" y="0"/>
	<rect class="CellGlyph" height="100" transform="translate(900, 600)" width="100" x="0" y="0"/>
	<rect class="CellGlyph" height="100" transform="translate(100, 700)" width="100" x="0" y="0"/>
	<rect class="CellGlyph" height="100" transform="translate(200, 700)" width="100" x="0" y="0"/>
	<rect class="CellGlyph" height="100" transform="translate(300, 700)" width="100" x="0" y="0"/>
	<rect class="CellGlyph" height="100" transform="translate(400, 700)" width="100" x="0" y="0"/>
	<rect class="CellGlyph" height="100" transform="translate(500, 700)" width="100" x="0" y="0"/>
	<rect class="CellGlyph" height="100" transform="translate(600, 700)" width="100" x="0" y="0"/>
	<rect class="CellGlyph" height="100" transform="translate(700, 700)" width="100" x="0" y="0"/>
	<rect class="CellGlyph" height="100" transform="translate(800, 700)" width="100" x="0" y="0"/>
	<rect class="CellGlyph" height="100" transform="translate(900, 700)" width="100" x="0" y="0"/>
	<rect class="CellGlyph" height="100" transform="translate(100, 800)" width="100" x="0" y="0"/>
	<rect class="CellGlyph" height="100" transform="translate(200, 800)" width="100" x="0" y="0"/>
	<rect class="CellGlyph" height="100" transform="translate(300, 800)" width="100" x="0" y="0"/>
	<rect class="CellGlyph" height="100" transform="translate(400, 800)" width="100" x="0" y="0"/>
	<rect class="CellGlyph" height="100" transform="translate(500, 800)" width="100" x="0" y="0"/>
	<rect class="CellGlyph" height="100" transform="translate(600, 800)" width="100" x="0" y="0"/>
	<rect class="CellGlyph" height="100" transform="translate(700, 800)" width="100" x="0" y="0"/>
	<rect class="CellGlyph" height="100" transform="translate(800, 800)" width="100" x="0" y="0"/>
	<rect class="CellGlyph" height="100" transform="translate(900, 800)" width="100" x="0" y="0"/>
	<rect class="CellGlyph" height="100" transform="translate(100, 900)" width="100" x="0" y="0"/>
	<rect class="CellGlyph" height="100" transform="translate(200, 900)" width="100" x="0" y="0"/>
	<rect class="CellGlyph" height="100" transform="translate(300, 900)" width="100" x="0" y="0"/>
	<rect class="CellGlyph" height="100" transform="translate(400, 900)" width="100" x="0" y="0"/>
	<rect class="CellGlyph" height="100" transform="translate(500, 900)" width="100" x="0" y="0"/>
	<rect class="CellGlyph" height="100" transform="translate(600, 900)" width="100" x="0" y="0"/>
	<rect class="CellGlyph" height="100" transform="translate(700, 900)" width="100" x="0" y="0"/>
	<rect class="CellGlyph" height="100" transform="translate(800, 900)" width="100" x="0" y="0"/>
	<rect class="CellGlyph" height="100" transform="translate(900, 900)" width="100" x="0" y="0"/>
	<rect class="CellGlyph" height="100" transform="translate(100, 100)" width="100" x="0" y="0"/>
	<rect class="CellGlyph" height="100" transform="translate(200, 100)" width="100" x="0" y="0"/>
	<rect class="CellGlyph" height="100" transform="translate(300, 100)" width="100" x="0" y="0"/>
	<rect class="CellGlyph" height="100" transform="translate(400, 100)" width="100" x="0" y="0"/>
	<rect class="CellGlyph" height="100" transform="translate(500, 100)" width="100" x="0" y="0"/>
	<rect class="CellGlyph" height="100" transform="translate(600, 100)" width="100" x="0" y="0"/>
	<rect class="CellGlyph" height="100" transform="translate(700, 100)" width="100" x="0" y="0"/>
	<rect class="CellGlyph" height="100" transform="translate(800, 100)" width="100" x="0" y="0"/>
	<rect class="CellGlyph" height="100" transform="translate(900, 100)" width="100" x="0" y="0"/>
	<rect class="CellGlyph" height="100" transform="translate(100, 200)" width="100" x="0" y="0"/>
	<rect class="CellGlyph" height="100" transform="translate(200, 200)" width="100" x="0" y="0"/>
	<rect class="CellGlyph" height="100" transform="translate(300, 200)" width="100" x="0" y="0"/>
	<rect class="CellGlyph" height="100" transform="translate(400, 200)" width="100" x="0" y="0"/>
	<rect class="CellGlyph" height="100" transform="translate(500, 200)" width="100" x="0" y="0"/>
	<rect class="CellGlyph" height="100" transform="translate(600, 200)" width="100" x="0" y="0"/>
	<rect class="CellGlyph" height="100" transform="translate(700, 200)" width="100" x="0" y="0"/>
	<rect class="CellGlyph" height="100" transform="translate(800, 200)" width="100" x="0" y="0"/>
	<rect class="CellGlyph" height="100" transform="translate(900, 200)" width="100" x="0" y="0"/>
	<rect class="CellGlyph" height="100" transform="translate(100, 300)" width="100" x="0" y="0"/>
	<rect class="CellGlyph" height="100" transform="translate(200, 300)" width="100" x="0" y="0"/>
	<rect class="CellGlyph" height="100" transform="translate(300, 300)" width="100" x="0" y="0"/>
	<rect class="CellGlyph" height="100" transform="translate(400, 300)" width="100" x="0" y="0"/>
	<rect class="CellGlyph" height="100" transform="translate(500, 300)" width="100" x="0" y="0"/>
	<rect class="CellGlyph" height="100" transform="translate(600, 300)" width="100" x="0" y="0"/>
	<rect class="CellGlyph" height="100" transform="translate(700, 300)" width="100" x="0" y="0"/>
	<rect class="CellGlyph" height="100" transform="translate(800, 300)" width="100" x="0" y="0"/>
	<rect class="CellGlyph" height="100" transform="translate(900, 300)" width="100" x="0" y="0"/>
	<rect class="CellGlyph" height="100" transform="translate(100, 400)" width="100" x="0" y="0"/>
	<rect class="CellGlyph" height="100" transform="translate(200, 400)" width="100" x="0" y="0"/>
	<rect class="CellGlyph" height="100" transform="translate(300, 400)" width="100" x="0" y="0"/>
	<rect class="CellGlyph" height="100" transform="translate(400, 400)" width="100" x="0" y="0"/>
	<rect class="CellGlyph" height="100" transform="translate(500, 400)" width="100" x="0" y="0"/>
	<rect class="CellGlyph" height="100" transform="translate(600, 400)" width="100" x="0" y="0"/>
	<rect class="CellGlyph" height="100" transform="translate(700, 400)" width="100" x="0" y="0"/>
	<rect class="CellGlyph" height="100" transform="translate(800, 400)" width="100" x="0" y="0"/>
	<rect class="CellGlyph" height="100" transform="translate(900, 400)" width="100" x="0" y="0"/>
	<rect class="CellGlyph" height="100" transform="translate(100, 500)" width="100" x="0" y="0"/>
	<rect class="CellGlyph" height="100" transform="translate(200, 500)" width="100" x="0" y="0"/>
	<rect class="CellGlyph" height="100" transform="translate(300, 500)" width="100" x="0" y="0"/>
	<rect class="CellGlyph" height="100" transform="translate(400, 500)" width="100" x="0" y="0"/>
	<rect class="CellGlyph" height="100" transform="translate(500, 500)" width="100" x="0" y="0"/>
	<rect class="CellGlyph" height="100" transform="translate(600, 500)" width="100" x="0" y="0"/>
	<rect class="CellGlyph" height="100" transform="translate(700, 500)" width="100" x="0" y="0"/>
	<rect class="CellGlyph" height="100" transform="translate(800, 500)" width="100" x="0" y="0"/>
	<rect class="CellGlyph" height="100" transform="translate(900, 500)" width="100" x="0" y="0"/>
	<rect class="CellGlyph" height="100" transform="translate(100, 600)" width="100" x="0" y="0"/>
	<rect class="CellGlyph" height="100" transform="translate(200, 600)" width="100" x="0" y="0"/>
	<rect class="CellGlyph" height="100" transform="translate(300, 600)" width="100" x="0" y="0"/>
	<rect class="CellGlyph" height="100" transform="translate(400, 600)" width="100" x="0" y="0"/>
	<rect class="CellGlyph" height="100" transform="translate(500, 600)" width="100" x="0" y="0"/>
	<rect class="CellGlyph" height="100" transform="translate(600, 600)" width="100" x="0" y="0"/>
	<rect class="CellGlyph" height="100" transform="translate(700, 600)" width="100" x="0" y="0"/>
	<rect class="CellGlyph" height="100" transform="translate(800, 600)" width="100" x="0" y="0"/>
	<rect class="CellGlyph" height="100" transform="translate(900, 600)" width="100" x="0" y="0"/>
	<rect class="CellGlyph" height="100" transform="translate(100, 700)" width="100" x="0" y="0"/>
	<rect class="CellGlyph" height="100" transform="translate(200, 700)" width="100" x="0" y="0"/>
	<rect class="CellGlyph" height="100" transform="translate(300, 700)" width="100" x="0" y="0"/>
	<rect class="CellGlyph" height="100" transform="translate(400, 700)" width="100" x="0" y="0"/>
	<rect class="CellGlyph" height="100" transform="translate(500, 700)" width="100" x="0" y="0"/>
	<rect class="CellGlyph" height="100" transform="translate(600, 700)" width="100" x="0" y="0"/>
	<rect class="CellGlyph" height="100" transform="translate(700, 700)" width="100" x="0" y="0"/>
	<rect class="CellGlyph" height="100" transform="translate(800, 700)" width="100" x="0" y="0"/>
	<rect class="CellGlyph" height="100" transform="translate(900, 700)" width="100" x="0" y="0"/>
	<rect class="CellGlyph" height="100" transform="translate(100, 800)" width="100" x="0" y="0"/>
	<rect class="CellGlyph" height="100" transform="translate(200, 800)" width="100" x="0" y="0"/>
	<rect class="CellGlyph" height="100" transform="translate(300, 800)" width="100" x="0" y="0"/>
	<rect class="CellGlyph" height="100" transform="translate(400, 800)" width="100" x="0" y="0"/>
	<rect class="CellGlyph" height="100" transform="translate(500, 800)" width="100" x="0" y="0"/>
	<rect class="CellGlyph" height="100" transform="translate(600, 800)" width="100" x="0" y="0"/>
	<rect class="CellGlyph" height="100" transform="translate(700, 800)" width="100" x="0" y="0"/>
	<rect class="CellGlyph" height="100" transform="translate(800, 800)" width="100" x="0" y="0"/>
	<rect class="CellGlyph" height="100" transform="translate(900, 800)" width="100" x="0" y="0"/>
	<rect class="CellGlyph" height="100" transform="translate(100, 900)" width="100" x="0" y="0"/>
	<rect class="CellGlyph" height="100" transform="translate(200, 900)" width="100" x="0" y="0"/>
	<rect class="CellGlyph" height="100" transform="translate(300, 900)" width="100" x="0" y="0"/>
	<rect class="CellGlyph" height="100" transform="translate(400, 900)" width="100" x="0" y="0"/>
	<rect class="CellGlyph" height="100" transform="translate(500, 900)" width="100" x="0" y="0"/>
	<rect class="CellGlyph" height="100" transform="translate(600, 900)" width="100" x="0" y="0"/>
	<rect class="CellGlyph" height="100" transform="translate(700, 900)" width="100" x="0" y="0"/>
	<rect class="CellGlyph" height="100" transform="translate(800, 900)" width="100" x="0" y="0"/>
	<rect class="CellGlyph" height="100" transform="translate(900, 900)" width="100" x="0" y="0"/>
	<rect class="CellGlyph" height="100" transform="translate(100, 400)" width="100" x="0" y="0"/>
	<rect class="CellGlyph" height="100" transform="translate(100, 300)" width="100" x="0" y="0"/>
	<rect class="CellGlyph" height="100" transform="translate(100, 200)" width="100" x="0" y="0"/>
	<rect class="CellGlyph" height="100" transform="translate(100, 100)" width="100" x="0" y="0"/>
	<rect class="CellGlyph" height="100" transform="translate(200, 400)" width="100" x="0" y="0"/>
	<rect class="CellGlyph" height="100" transform="translate(200, 300)" width="100" x="0" y="0"/>
	<rect class="CellGlyph" height="100" transform="translate(200, 200)" width="100" x="0" y="0"/>
	<rect class="CellGlyph" height="100" transform="translate(200, 100)" width="100" x="0" y="0"/>
	<rect class="CellGlyph" height="100" transform="translate(400, 100)" width="100" x="0" y="0"/>
	<rect class="CellGlyph" height="100" transform="translate(400, 200)" width="100" x="0" y="0"/>
	<rect class="CellGlyph" height="100" transform="translate(300, 200)" width="100" x="0" y="0"/>
	<rect class="CellGlyph" height="100" transform="translate(500, 400)" width="100" x="0" y="0"/>
	<rect class="CellGlyph" height="100" transform="translate(500, 300)" width="100" x="0" y="0"/>
	<rect class="CellGlyph" height="100" transform="translate(500, 200)" width="100" x="0" y="0"/>
	<rect class="CellGlyph" height="100" transform="translate(500, 100)" width="100" x="0" y="0"/>
	<rect class="CellGlyph" height="100" transform="translate(800, 300)" width="100" x="0" y="0"/>
	<rect class="CellGlyph" height="100" transform="translate(800, 200)" width="100" x="0" y="0"/>
	<rect class="CellGlyph" height="100" transform="translate(800, 100)" width="100" x="0" y="0"/>
	<rect class="CellGlyph" height="100" transform="translate(700, 400)" width="100" x="0" y="0"/>
	<rect class="CellGlyph" height="100" transform="translate(600, 400)" width="100" x="0" y="0"/>
	<rect class="CellGlyph" height="100" transform="translate(900, 200)" width="100" x="0" y="0"/>
	<rect class="CellGlyph" height="100" transform="translate(900, 300)" width="100" x="0" y="0"/>
	<rect class="CellGlyph" height="100" transform="translate(900, 400)" width="100" x="0" y="0"/>
	<rect class="CellGlyph" height="100" transform="translate(900, 500)" width="100" x="0" y="0"/>
	<rect class="CellGlyph" height="100" transform="translate(100, 800)" width="100" x="0" y="0"/>
	<rect class="CellGlyph" height="100" transform="translate(100, 700)" width="100" x="0" y="0"/>
	<rect class="CellGlyph" height="100" transform="translate(100, 600)" width="100" x="0" y="0"/>
	<rect class="CellGlyph" height="100" transform="translate(100, 500)" width="100" x="0" y="0"/>
	<rect class="CellGlyph" height="100" transform="translate(200, 700)" width="100" x="0" y="0"/>
	<rect class="CellGlyph" height="100" transform="translate(200, 800)" width="100" x="0" y="0"/>
	<rect class="CellGlyph" height="100" transform="translate(200, 900)" width="100" x="0" y="0"/>
	<rect class="CellGlyph" height="100" transform="translate(300, 700)" width="100" x="0" y="0"/>
	<rect class="CellGlyph" height="100" transform="translate(400, 700)" width="100" x="0" y="0"/>
	<rect class="CellGlyph" height="100" transform="translate(500, 600)" width="100" x="0" y="0"/>
	<rect class="CellGlyph" height="100" transform="translate(500, 700)" width="100" x="0" y="0"/>
	<rect class="CellGlyph" height="100" transform="translate(500, 800)" width="100" x="0" y="0"/>
	<rect class="CellGlyph" height="100" transform="translate(500, 900)" width="100" x="0" y="0"/>
	<rect class="CellGlyph" height="100" transform="translate(600, 700)" width="100" x="0" y="0"/>
	<rect class="CellGlyph" height="100" transform="translate(600, 800)" width="100" x="0" y="0"/>
	<rect class="CellGlyph" height="100" transform="translate(700, 800)" width="100" x="0" y="0"/>
	<rect class="CellGlyph" height="100" transform="translate(800, 600)" width="100" x="0" y="0"/>
	<rect class="CellGlyph" height="100" transform="translate(800, 700)" width="100" x="0" y="0"/>
	<rect class="CellGlyph" height="100" transform="translate(800, 800)" width="100" x="0" y="0"/>
	<rect class="CellGlyph" height="100" transform="translate(800, 900)" width="100" x="0" y="0"/>
	<rect class="CellGlyph" height="100" transform="translate(900, 600)" width="100" x="0" y="0"/>
	<rect class="CellGlyph" height="100" transform="translate(900, 700)" width="100" x="0" y="0"/>
	<rect class="CellGlyph" height="100" transform="translate(900, 800)" width="100" x="0" y="0"/>
	<rect class="CellGlyph" height="100" transform="translate(900, 900)" width="100" x="0" y="0"/>
</svg>
