<?xml version="1.0" ?>
<svg xmlns="http://www.w3.org/2000/svg" xmlns:ev="http://www.w3.org/2001/xml-events" xmlns:xlink="http://www.w3.org/1999/xlink" baseProfile="full" height="35cm" version="1.1" width="35cm">
	<defs/>
	<rect class="BoxGlyph" height="200" transform="translate(100, 100)" width="300" x="0" y="0"/>
	<rect class="BoxGlyph" height="200" transform="translate(100, 300)" width="300" x="0" y="0"/>
	<rect class="BoxGlyph" height="200" transform="translate(100, 500)" width="300" x="0" y="0"/>
	<rect class="BoxGlyph" height="200" transform="translate(400, 100)" width="300" x="0" y="0"/>
	<rect class="BoxGlyph" height="200" transform="translate(400, 300)" width="300" x="0" y="0"/>
	<rect class="BoxGlyph" height="200" transform="translate(400, 500)" width="300" x="0" y="0"/>
	<text class="KnownGlyphBackground" transform="translate(650.0, 150.0) ">
		<tspan alignment-baseline="central" text-anchor="middle">3</tspan>
	</text>
	<text class="KnownGlyphForeground" transform="translate(650.0, 150.0) ">
		<tspan alignment-baseline="central" text-anchor="middle">3</tspan>
	</text>
	<text class="KnownGlyphBackground" transform="translate(250.0, 250.0) ">
		<tspan alignment-baseline="central" text-anchor="middle">6</tspan>
	</text>
	<text class="KnownGlyphForeground" transform="translate(250.0, 250.0) ">
		<tspan alignment-baseline="central" text-anchor="middle">6</tspan>
	</text>
	<text class="KnownGlyphBackground" transform="translate(450.0, 250.0) ">
		<tspan alignment-baseline="central" text-anchor="middle">4</tspan>
	</text>
	<text class="KnownGlyphForeground" transform="translate(450.0, 250.0) ">
		<tspan alignment-baseline="central" text-anchor="middle">4</tspan>
	</text>
	<text class="KnownGlyphBackground" transform="translate(550.0, 250.0) ">
		<tspan alignment-baseline="central" text-anchor="middle">5</tspan>
	</text>
	<text class="KnownGlyphForeground" transform="translate(550.0, 250.0) ">
		<tspan alignment-baseline="central" text-anchor="middle">5</tspan>
	</text>
	<text class="KnownGlyphBackground" transform="translate(550.0, 350.0) ">
		<tspan alignment-baseline="central" text-anchor="middle">1</tspan>
	</text>
	<text class="KnownGlyphForeground" transform="translate(550.0, 350.0) ">
		<tspan alignment-baseline="central" text-anchor="middle">1</tspan>
	</text>
	<text class="KnownGlyphBackground" transform="translate(650.0, 350.0) ">
		<tspan alignment-baseline="central" text-anchor="middle">5</tspan>
	</text>
	<text class="KnownGlyphForeground" transform="translate(650.0, 350.0) ">
		<tspan alignment-baseline="central" text-anchor="middle">5</tspan>
	</text>
	<text class="KnownGlyphBackground" transform="translate(150.0, 450.0) ">
		<tspan alignment-baseline="central" text-anchor="middle">1</tspan>
	</text>
	<text class="KnownGlyphForeground" transform="translate(150.0, 450.0) ">
		<tspan alignment-baseline="central" text-anchor="middle">1</tspan>
	</text>
	<text class="KnownGlyphBackground" transform="translate(250.0, 450.0) ">
		<tspan alignment-baseline="central" text-anchor="middle">2</tspan>
	</text>
	<text class="KnownGlyphForeground" transform="translate(250.0, 450.0) ">
		<tspan alignment-baseline="central" text-anchor="middle">2</tspan>
	</text>
	<text class="KnownGlyphBackground" transform="translate(250.0, 550.0) ">
		<tspan alignment-baseline="central" text-anchor="middle">1</tspan>
	</text>
	<text class="KnownGlyphForeground" transform="translate(250.0, 550.0) ">
		<tspan alignment-baseline="central" text-anchor="middle">1</tspan>
	</text>
	<text class="KnownGlyphBackground" transform="translate(350.0, 550.0) ">
		<tspan alignment-baseline="central" text-anchor="middle">2</tspan>
	</text>
	<text class="KnownGlyphForeground" transform="translate(350.0, 550.0) ">
		<tspan alignment-baseline="central" text-anchor="middle">2</tspan>
	</text>
	<text class="KnownGlyphBackground" transform="translate(550.0, 550.0) ">
		<tspan alignment-baseline="central" text-anchor="middle">3</tspan>
	</text>
	<text class="KnownGlyphForeground" transform="translate(550.0, 550.0) ">
		<tspan alignment-baseline="central" text-anchor="middle">3</tspan>
	</text>
	<text class="KnownGlyphBackground" transform="translate(150.0, 650.0) ">
		<tspan alignment-baseline="central" text-anchor="middle">6</tspan>
	</text>
	<text class="KnownGlyphForeground" transform="translate(150.0, 650.0) ">
		<tspan alignment-baseline="central" text-anchor="middle">6</tspan>
	</text>
	<rect class="CellGlyph" height="100" transform="translate(100, 100)" width="100" x="0" y="0"/>
	<rect class="CellGlyph" height="100" transform="translate(200, 100)" width="100" x="0" y="0"/>
	<rect class="CellGlyph" height="100" transform="translate(300, 100)" width="100" x="0" y="0"/>
	<rect class="CellGlyph" height="100" transform="translate(400, 100)" width="100" x="0" y="0"/>
	<rect class="CellGlyph" height="100" transform="translate(500, 100)" width="100" x="0" y="0"/>
	<rect class="CellGlyph" height="100" transform="translate(600, 100)" width="100" x="0" y="0"/>
	<rect class="CellGlyph" height="100" transform="translate(100, 200)" width="100" x="0" y="0"/>
	<rect class="CellGlyph" height="100" transform="translate(200, 200)" width="100" x="0" y="0"/>
	<rect class="CellGlyph" height="100" transform="translate(300, 200)" width="100" x="0" y="0"/>
	<rect class="CellGlyph" height="100" transform="translate(400, 200)" width="100" x="0" y="0"/>
	<rect class="CellGlyph" height="100" transform="translate(500, 200)" width="100" x="0" y="0"/>
	<rect class="CellGlyph" height="100" transform="translate(600, 200)" width="100" x="0" y="0"/>
	<rect class="CellGlyph" height="100" transform="translate(100, 300)" width="100" x="0" y="0"/>
	<rect class="CellGlyph" height="100" transform="translate(200, 300)" width="100" x="0" y="0"/>
	<rect class="CellGlyph" height="100" transform="translate(300, 300)" width="100" x="0" y="0"/>
	<rect class="CellGlyph" height="100" transform="translate(400, 300)" width="100" x="0" y="0"/>
	<rect class="CellGlyph" height="100" transform="translate(500, 300)" width="100" x="0" y="0"/>
	<rect class="CellGlyph" height="100" transform="translate(600, 300)" width="100" x="0" y="0"/>
	<rect class="CellGlyph" height="100" transform="translate(100, 400)" width="100" x="0" y="0"/>
	<rect class="CellGlyph" height="100" transform="translate(200, 400)" width="100" x="0" y="0"/>
	<rect class="CellGlyph" height="100" transform="translate(300, 400)" width="100" x="0" y="0"/>
	<rect class="CellGlyph" height="100" transform="translate(400, 400)" width="100" x="0" y="0"/>
	<rect class="CellGlyph" height="100" transform="translate(500, 400)" width="100" x="0" y="0"/>
	<rect class="CellGlyph" height="100" transform="translate(600, 400)" width="100" x="0" y="0"/>
	<rect class="CellGlyph" height="100" transform="translate(100, 500)" width="100" x="0" y="0"/>
	<rect class="CellGlyph" height="100" transform="translate(200, 500)" width="100" x="0" y="0"/>
	<rect class="CellGlyph" height="100" transform="translate(300, 500)" width="100" x="0" y="0"/>
	<rect class="CellGlyph" height="100" transform="translate(400, 500)" width="100" x="0" y="0"/>
	<rect class="CellGlyph" height="100" transform="translate(500, 500)" width="100" x="0" y="0"/>
	<rect class="CellGlyph" height="100" transform="translate(600, 500)" width="100" x="0" y="0"/>
	<rect class="CellGlyph" height="100" transform="translate(100, 600)" width="100" x="0" y="0"/>
	<rect class="CellGlyph" height="100" transform="translate(200, 600)" width="100" x="0" y="0"/>
	<rect class="CellGlyph" height="100" transform="translate(300, 600)" width="100" x="0" y="0"/>
	<rect class="CellGlyph" height="100" transform="translate(400, 600)" width="100" x="0" y="0"/>
	<rect class="CellGlyph" height="100" transform="translate(500, 600)" width="100" x="0" y="0"/>
	<rect class="CellGlyph" height="100" transform="translate(600, 600)" width="100" x="0" y="0"/>
	<rect class="CellGlyph" height="100" transform="translate(100, 100)" width="100" x="0" y="0"/>
	<rect class="CellGlyph" height="100" transform="translate(200, 100)" width="100" x="0" y="0"/>
	<rect class="CellGlyph" height="100" transform="translate(300, 100)" width="100" x="0" y="0"/>
	<rect class="CellGlyph" height="100" transform="translate(400, 100)" width="100" x="0" y="0"/>
	<rect class="CellGlyph" height="100" transform="translate(500, 100)" width="100" x="0" y="0"/>
	<rect class="CellGlyph" height="100" transform="translate(100, 200)" width="100" x="0" y="0"/>
	<rect class="CellGlyph" height="100" transform="translate(300, 200)" width="100" x="0" y="0"/>
	<rect class="CellGlyph" height="100" transform="translate(600, 200)" width="100" x="0" y="0"/>
	<rect class="CellGlyph" height="100" transform="translate(100, 300)" width="100" x="0" y="0"/>
	<rect class="CellGlyph" height="100" transform="translate(200, 300)" width="100" x="0" y="0"/>
	<rect class="CellGlyph" height="100" transform="translate(300, 300)" width="100" x="0" y="0"/>
	<rect class="CellGlyph" height="100" transform="translate(400, 300)" width="100" x="0" y="0"/>
	<rect class="CellGlyph" height="100" transform="translate(300, 400)" width="100" x="0" y="0"/>
	<rect class="CellGlyph" height="100" transform="translate(400, 400)" width="100" x="0" y="0"/>
	<rect class="CellGlyph" height="100" transform="translate(500, 400)" width="100" x="0" y="0"/>
	<rect class="CellGlyph" height="100" transform="translate(600, 400)" width="100" x="0" y="0"/>
	<rect class="CellGlyph" height="100" transform="translate(100, 500)" width="100" x="0" y="0"/>
	<rect class="CellGlyph" height="100" transform="translate(400, 500)" width="100" x="0" y="0"/>
	<rect class="CellGlyph" height="100" transform="translate(600, 500)" width="100" x="0" y="0"/>
	<rect class="CellGlyph" height="100" transform="translate(200, 600)" width="100" x="0" y="0"/>
	<rect class="CellGlyph" height="100" transform="translate(300, 600)" width="100" x="0" y="0"/>
	<rect class="CellGlyph" height="100" transform="translate(400, 600)" width="100" x="0" y="0"/>
	<rect class="CellGlyph" height="100" transform="translate(500, 600)" width="100" x="0" y="0"/>
	<rect class="CellGlyph" height="100" transform="translate(600, 600)" width="100" x="0" y="0"/>
</svg>
